<?xml version="1.0" encoding="utf-8"?>
<!-- Generator: Adobe Illustrator 27.5.0, SVG Export Plug-In . SVG Version: 6.00 Build 0)  -->
<svg version="1.1" xmlns="http://www.w3.org/2000/svg" xmlns:xlink="http://www.w3.org/1999/xlink" x="0px" y="0px"
	 viewBox="0 0 750 500" style="enable-background:new 0 0 750 500;" xml:space="preserve">
<g id="BACKGROUND">
	<rect style="fill:none;" width="750" height="500"/>
</g>
<g id="OBJECTS">
	<path style="fill:#EBEBEB;" d="M211.005,438.839h-97.308c0,0-37.739-36.676-28.626-90.321
		c11.596-68.261,61.675-70.759,61.675-70.759s-0.276-108.268,119.751-101.981c0,0,106.561-57.029,174.58,22.082
		c0,0,47.895-51.662,137.039-15.622C679.2,223.104,686.124,391.539,614.25,438.839H211.005z"/>
	<g>
		<text transform="matrix(1 0 0 1 493.3799 162.8311)"><tspan x="0" y="0" style="fill:#9FC1F7; font-family:'Kanit-SemiBold'; font-size:22.0894px;">&lt;?php</tspan><tspan x="0" y="26.507" style="fill:#9FC1F7; font-family:'Kanit-SemiBold'; font-size:22.0894px;">echo “Hello</tspan><tspan x="0" y="53.015" style="fill:#9FC1F7; font-family:'Kanit-SemiBold'; font-size:22.0894px;">World!”;</tspan><tspan x="0" y="79.521" style="fill:#9FC1F7; font-family:'Kanit-SemiBold'; font-size:22.0894px;">?&gt;</tspan></text>
		<g>
			<text transform="matrix(1 0 0 1 556.0498 284.2666)" style="fill:#126945; font-family:'Kanit-Bold'; font-size:28.4364px;">CSS</text>
		</g>
		<g>
			<path style="fill:#11563A;" d="M109.133,255.811h61.111c3.736,0,6.765-3.029,6.765-6.765v-25.535
				c0-3.736-3.029-6.765-6.765-6.765h-61.111c-3.736,0-6.765,3.029-6.765,6.765v25.535
				C102.368,252.783,105.397,255.811,109.133,255.811z"/>
			<g>
				<text transform="matrix(1 0 0 1 118.7568 243.251)" style="fill:#FFFFFF; font-family:'Kanit-Bold'; font-size:21.5559px;">PHP</text>
			</g>
		</g>
		<g>
			<path style="fill:#11563A;" d="M599.603,382.722h61.11c3.736,0,6.765-3.029,6.765-6.765v-25.535c0-3.736-3.029-6.765-6.765-6.765
				h-61.11c-3.736,0-6.765,3.029-6.765,6.765v25.535C592.837,379.694,595.866,382.722,599.603,382.722z"/>
			<g>
				<text transform="matrix(1 0 0 1 612.1563 371.0967)" style="fill:#FFFFFF; font-family:'Kanit-Bold'; font-size:22.9823px;">&lt;/&gt;</text>
			</g>
		</g>
		<path style="fill:#A6A6A6;" d="M165.703,353.094l-3.352-2.257c0.421-1.613,0.668-3.296,0.668-5.04
			c0-1.938-0.291-3.806-0.807-5.579l3.468-2.35c1.594-1.08,2.011-3.248,0.93-4.843l-3.261-4.812c-1.08-1.594-3.248-2.011-4.843-0.93
			l-3.614,2.449c-1.658-1.231-3.506-2.213-5.499-2.888v-4.395c0-1.926-1.561-3.487-3.487-3.487h-5.813
			c-1.926,0-3.487,1.561-3.487,3.487v4.395c-2.013,0.681-3.877,1.676-5.546,2.923l-3.621-2.439c-1.597-1.076-3.764-0.653-4.84,0.945
			l-3.247,4.822c-1.076,1.597-0.653,3.764,0.945,4.84l3.476,2.341c-0.505,1.756-0.792,3.605-0.792,5.522
			c0,1.764,0.252,3.467,0.683,5.098l-3.344,2.266c-1.594,1.08-2.011,3.248-0.93,4.843l3.261,4.812
			c1.08,1.594,3.248,2.011,4.843,0.93l3.218-2.18c1.756,1.372,3.743,2.456,5.896,3.185v3.829c0,1.926,1.561,3.487,3.487,3.487h5.813
			c1.926,0,3.487-1.561,3.487-3.487v-3.829c2.173-0.735,4.176-1.831,5.944-3.221l3.223,2.171c1.598,1.075,3.764,0.653,4.84-0.945
			l3.247-4.822C167.724,356.336,167.301,354.169,165.703,353.094z M143,355.936c-5.591,0-10.139-4.548-10.139-10.139
			c0-5.591,4.548-10.139,10.139-10.139c5.591,0,10.141,4.549,10.141,10.139C153.14,351.388,148.591,355.936,143,355.936z"/>
	</g>
	<g>
		<g>
			<path style="fill:#263238;" d="M401.457,192.708c0,0-8.767-8.219-10.274-18.082c-1.507-9.863,8.388-17.26,8.388-17.26
				s0.04-6.472,7.776-11.233c1.781-1.096,6.849-10.411,12.192-10.959c5.342-0.548,5.205,8.082,5.205,8.082s11.507-8.219,15.205-7.26
				c3.699,0.959,1.233,6.027,1.233,6.027s12.603-6.438,15.753-4.521c3.151,1.918,1.096,10.685,1.096,10.685
				s4.247,5.205,12.466,8.767c8.219,3.561,18.904,9.041,18.767,24.52c-0.137,15.479-11.507,34.931-11.507,34.931l-67.122-5.205
				L401.457,192.708z"/>
			<g>
				<path style="fill:#455A64;" d="M417.5,184.106c-0.966-0.188-1.835-0.752-2.57-1.412c-0.739-0.666-1.382-1.447-1.908-2.294
					c-1.044-1.707-1.714-3.601-2.238-5.513c-0.897-3.855-1.288-7.821-0.774-11.824c0.254-1.991,0.867-3.917,1.593-5.779
					c0.855-1.804,1.765-3.597,3.019-5.146c2.381-3.172,5.423-5.826,8.884-7.638c-1.576,1.148-3.032,2.431-4.352,3.833
					c-1.356,1.364-2.566,2.865-3.607,4.46c-2.11,3.17-3.592,6.737-4.08,10.481l-0.194,1.4c-0.046,0.469-0.032,0.943-0.051,1.414
					l-0.036,1.416l0.075,1.436c0.048,1.923,0.336,3.812,0.625,5.701c0.373,1.867,0.897,3.714,1.762,5.404
					C414.468,181.732,415.69,183.347,417.5,184.106z"/>
				<path style="fill:#455A64;" d="M420.598,183.594c-1.089-4.063-1.375-8.333-1.084-12.561c0.269-4.236,1.335-8.446,3.17-12.322
					c1.886-3.847,4.557-7.298,7.758-10.089c3.178-2.812,6.802-5.124,10.741-6.598c-1.839,1.009-3.602,2.126-5.252,3.393
					c-1.677,1.223-3.261,2.569-4.715,4.033c-1.447,1.469-2.847,2.984-4.029,4.662c-1.241,1.634-2.277,3.408-3.177,5.241
					c-1.78,3.682-2.846,7.696-3.373,11.792c-0.268,2.049-0.396,4.123-0.387,6.201C420.218,179.428,420.353,181.511,420.598,183.594z
					"/>
				<path style="fill:#455A64;" d="M410.457,183.594c-2.456-0.7-4.616-2.331-6.31-4.283c-1.716-1.964-2.911-4.33-3.749-6.772
					c-0.868-2.449-1.194-5.025-1.378-7.572c-0.017-1.278,0.002-2.556,0.054-3.825c0.167-1.267,0.285-2.529,0.496-3.776
					c0.121,1.27,0.148,2.525,0.226,3.776l0.369,3.724c0.41,2.446,0.781,4.898,1.628,7.202c0.767,2.32,1.821,4.547,3.251,6.531
					C406.498,180.548,408.238,182.368,410.457,183.594z"/>
				<path style="fill:#455A64;" d="M424.74,182.237c2.249-2.657,4.611-5.199,6.99-7.724c2.367-2.537,4.816-4.991,7.266-7.445
					c2.474-2.43,4.95-4.857,7.506-7.203l3.838-3.516c1.317-1.134,2.599-2.303,3.948-3.405c-1.114,1.339-2.294,2.611-3.439,3.918
					l-3.549,3.808c-2.368,2.536-4.817,4.991-7.268,7.444c-2.475,2.428-4.951,4.856-7.508,7.201
					C429.978,177.672,427.416,180.012,424.74,182.237z"/>
			</g>
		</g>
		<g>
			<polygon style="fill:#FFBE9D;" points="414.28,367.775 407.243,424.811 380.362,424.811 391.404,348.49 			"/>
			<polygon style="fill:#FFBE9D;" points="527.102,353.903 554.546,428.964 584.996,428.259 554.197,337.504 			"/>
		</g>
		<g>
			<path style="fill:#FFBE9D;" d="M469.717,224.513l3.541,33.991c0.734,7.042-1.148,10.243-4.903,16.245
				c-3.683,5.885-9.286,9.517-19.549,9.517c-22.152,0-18.947-40.385-18.947-40.385L469.717,224.513z"/>
			<path style="fill:#EB996E;" d="M431.474,266.151c0.41,1.74,0.911,3.457,1.52,5.103c2.284,1.636,7.359,3.766,16.678,0.926
				c12.958-3.949,15.723-21.548,15.723-21.548C458.903,261.95,431.538,266.141,431.474,266.151z"/>
			<path style="fill:#FFBE9D;" d="M474.33,207.921c-1.493,0-2.915,0.298-4.218,0.828v-0.075c-12.693-1.18-4.066-31.629-4.066-31.629
				s-6.373,2.124-9.206,1.652c-2.832-0.472,3.777-6.609,3.777-6.609s-7.553,3.54-10.386,2.832c-2.832-0.708,1.18-5.429,1.18-5.429
				s-14.162,7.317-26.672,12.746c-12.51,5.429-25.02-1.888-25.02-1.888c-1.18,28.56,5.046,59.885,5.046,59.885l0.001,0
				c3.06,15.062,16.376,26.399,32.341,26.399c17.57,0,31.928-13.731,32.941-31.047l0.063-0.004v-6.065
				c1.303,0.53,2.725,0.827,4.218,0.827c6.192,0,11.212-5.02,11.212-11.212C485.542,212.941,480.522,207.921,474.33,207.921z"/>
		</g>
		<g>
			<path style="fill:#11563A;" d="M565.464,339.861c-4.088-6.835-13.729-23.133-20.099-35.34
				c-8.265-15.841-11.709-22.04-24.107-27.55c-12.398-5.51-40.637-8.954-40.637-8.954l-32.187,17.751l-21.288-9.669
				c0,0-23.908,11.204-27.575,17.402c-3.668,6.199-14.343,72.387-14.343,72.387l30.1,7.779l2.317-20.506l14.858,73.361
				l101.463,2.442l-16.152-90.349l9.548,22.975c0.873,2.1,3.148,3.247,5.35,2.683c6.99-1.789,21.926-6.74,32.198-18.152
				C566.46,344.401,566.652,341.848,565.464,339.861z"/>
			<g>
				<path style="fill:#03301f;" d="M517.815,338.614c-1.146-2.546-2.154-5.137-3.113-7.743c-0.968-2.604-1.854-5.234-2.725-7.87
					c-0.844-2.644-1.671-5.293-2.415-7.97c-0.754-2.673-1.458-5.363-2.022-8.097c1.148,2.545,2.157,5.136,3.116,7.743
					c0.968,2.604,1.854,5.234,2.722,7.87c0.842,2.645,1.669,5.294,2.413,7.97C516.544,333.191,517.248,335.88,517.815,338.614z"/>
			</g>
			<g>
				<path style="fill:#03301f;" d="M508.725,273.014c-1.305,1.534-2.315,3.224-3.145,4.979c-0.816,1.762-1.427,3.6-1.843,5.487
					c-0.165,0.952-0.382,1.898-0.445,2.869c-0.046,0.483-0.141,0.964-0.147,1.451c-0.01,0.487-0.034,0.975-0.063,1.464
					c-0.047,0.49-0.014,0.979-0.008,1.471l0.014,1.483c0.042,0.99,0.141,1.979,0.148,2.997c-0.327-0.95-0.62-1.921-0.865-2.906
					c-0.154-0.997-0.398-1.997-0.437-3.016c-0.19-2.036-0.015-4.1,0.366-6.124c0.47-2.006,1.195-3.965,2.275-5.721
					C505.639,275.702,507.005,274.097,508.725,273.014z"/>
			</g>
			<g>
				<path style="fill:#03301f;" d="M417.645,353.16c-0.761-3.186-1.539-6.364-2.184-9.567c-0.676-3.198-1.271-6.41-1.852-9.624
					c-1.113-6.438-2.122-12.894-2.693-19.429c1.718,6.331,2.989,12.742,4.143,19.174c0.552,3.22,1.086,6.444,1.53,9.683
					C417.043,346.634,417.446,349.883,417.645,353.16z"/>
			</g>
			<g>
				<path style="fill:#03301f;" d="M399.571,293.5c0.679-0.404,1.536-0.466,2.349-0.339c0.808,0.166,1.581,0.525,2.239,1.018
					c1.345,0.978,2.239,2.361,2.99,3.745c0.683,1.424,1.219,2.899,1.539,4.416c0.366,1.506,0.518,3.05,0.554,4.594
					c-0.637-1.423-1.095-2.863-1.653-4.259c-0.253-0.708-0.543-1.392-0.835-2.075c-0.251-0.703-0.608-1.342-0.917-2.009
					c-0.669-1.289-1.414-2.544-2.412-3.533C402.435,294.097,401.135,293.327,399.571,293.5z"/>
			</g>
			<path style="fill:#108554;" d="M474.769,259.88l-24.42,22.456h-4.21l-14.27-13.746c-0.345-0.333-0.9-0.303-1.208,0.065
				l-6.282,7.516c-0.415,0.496-0.463,1.203-0.119,1.751l9.55,15.202c1.666,2.652,5.542,2.624,7.169-0.053l4.325-7.115l0.525,27.132
				c0.016,0.836,0.721,1.493,1.556,1.45l5.106-0.262c0.819-0.042,1.448-0.741,1.403-1.56l-1.455-26.443l6.455,8.451
				c1.698,2.223,5.05,2.205,6.724-0.036l19.924-26.667L474.769,259.88z"/>
			<g>
				<path style="fill:#FFFFFF;" d="M450.546,290.139c0,0.875-0.709,1.584-1.584,1.584s-1.584-0.709-1.584-1.584
					c0-0.875,0.709-1.584,1.584-1.584S450.546,289.264,450.546,290.139z"/>
				<path style="fill:#FFFFFF;" d="M451.278,308.58c0,0.875-0.709,1.584-1.584,1.584c-0.875,0-1.584-0.709-1.584-1.584
					c0-0.875,0.709-1.584,1.584-1.584C450.569,306.996,451.278,307.705,451.278,308.58z"/>
				<path style="fill:#FFFFFF;" d="M450.879,299.659c0,0.875-0.709,1.584-1.584,1.584c-0.875,0-1.584-0.709-1.584-1.584
					c0-0.875,0.709-1.584,1.584-1.584C450.17,298.075,450.879,298.784,450.879,299.659z"/>
			</g>
			<g>
				<path style="fill:#108554;" d="M448.962,394.787c3.372,2.862,7.039,5.313,10.823,7.51c3.808,2.154,7.775,4.025,11.92,5.371
					c4.128,1.385,8.421,2.27,12.769,2.59c2.174,0.156,4.364,0.19,6.551,0.04c2.198-0.063,4.366-0.443,6.556-0.776
					c-4.215,1.324-8.688,2.035-13.162,1.884c-4.477-0.09-8.928-0.941-13.178-2.34c-4.25-1.411-8.294-3.391-12.05-5.788
					C455.443,400.875,451.944,398.065,448.962,394.787z"/>
			</g>
		</g>
		<g>
			<g>
				<path style="fill:#263238;" d="M445.526,216.006c-0.169,1.622-1.62,2.8-3.242,2.631c-1.622-0.169-2.8-1.62-2.631-3.242
					c0.169-1.622,1.62-2.8,3.242-2.631C444.517,212.933,445.695,214.384,445.526,216.006z"/>
				<g>
					<path style="fill:#263238;" d="M437.099,208.741c-0.11-1.356,0.51-2.782,1.592-3.781c0.534-0.517,1.206-0.853,1.881-1.14
						c0.696-0.231,1.401-0.381,2.127-0.417c0.724-0.046,1.463,0.064,2.171,0.241c0.692,0.239,1.379,0.513,1.946,0.962
						c1.153,0.848,2.003,2.037,2.327,3.354c-1.901-1.883-4.071-2.975-6.362-2.8c-1.158,0.032-2.278,0.316-3.257,0.885
						C438.562,206.639,437.709,207.546,437.099,208.741z"/>
				</g>
				<path style="fill:#263238;" d="M434.996,198.192c2.213-0.437,7.48-1.192,14.564-0.333c0.593,0.072,1.005-0.593,0.668-1.087
					c-1.03-1.51-3.606-3.786-9.674-3.35c-4.136,0.296-5.736,2.417-6.345,3.808C433.982,197.749,434.441,198.302,434.996,198.192z"/>
			</g>
			<g>
				<path style="fill:#263238;" d="M416.788,217.668c0.114,1.598-0.785,2.965-2.009,3.053c-1.224,0.088-2.309-1.137-2.424-2.735
					c-0.114-1.598,0.785-2.965,2.009-3.052C415.588,214.845,416.673,216.07,416.788,217.668z"/>
				<g>
					<path style="fill:#263238;" d="M406.806,212.748c-0.315-1.113-0.221-2.358,0.304-3.487c0.497-1.149,1.592-2.078,2.803-2.472
						c0.62-0.183,1.286-0.293,1.947-0.195c0.652,0.096,1.279,0.321,1.797,0.676c1.039,0.698,1.762,1.701,2.094,2.809
						c-0.863-0.754-1.748-1.377-2.657-1.748c-0.922-0.351-1.817-0.366-2.697-0.08c-0.89,0.301-1.662,0.825-2.254,1.616
						C407.553,210.657,407.127,211.648,406.806,212.748z"/>
				</g>
				<path style="fill:#263238;" d="M403.64,202.674c1.599-0.78,5.449-2.356,10.907-2.625c0.457-0.023,0.667-0.744,0.34-1.178
					c-1.001-1.327-3.282-3.165-7.782-1.779c-3.067,0.945-3.953,3.289-4.202,4.757C402.811,202.396,403.239,202.87,403.64,202.674z"
					/>
			</g>
			<g>
				<path style="fill:#263238;" d="M421.226,207.703c-0.355,3.084-0.636,6.164-0.846,9.238c-0.18,3.071-0.313,6.154-0.044,9.179
					c0.106,0.745,0.12,1.516,0.299,2.24l0.219,1.1l0.339,1.048c0.477,1.346,1.33,2.605,2.52,3.351
					c0.577,0.414,1.282,0.545,1.983,0.644c0.714,0.01,1.453-0.053,2.165-0.294c1.446-0.41,2.78-1.234,4.012-2.166
					c-1.055,1.14-2.34,2.091-3.813,2.727c-0.736,0.327-1.551,0.474-2.382,0.529c-0.826-0.033-1.702-0.171-2.432-0.615
					c-1.515-0.808-2.509-2.251-3.128-3.768l-0.397-1.156l-0.251-1.174c-0.199-0.783-0.226-1.571-0.343-2.358
					c-0.254-3.152-0.062-6.282,0.313-9.374C419.812,213.759,420.41,210.7,421.226,207.703z"/>
			</g>
			<g>
				<path style="fill:#263238;" d="M425.399,243.054c1.672,0.542,3.375,0.841,5.059,0.836c1.677-0.02,3.34-0.296,4.856-0.97
					c0.741-0.36,1.511-0.69,2.172-1.206c0.336-0.246,0.716-0.438,1.022-0.729c0.311-0.283,0.631-0.559,0.955-0.833
					c0.342-0.257,0.602-0.598,0.9-0.904l0.888-0.937c0.543-0.669,1.063-1.364,1.65-2.033c-0.353,0.802-0.747,1.597-1.167,2.382
					c-0.52,0.715-0.97,1.503-1.592,2.153c-1.171,1.373-2.686,2.46-4.355,3.223c-1.694,0.727-3.576,0.978-5.378,0.795
					C428.606,244.655,426.856,244.053,425.399,243.054z"/>
			</g>
			<g>
				<path style="fill:#EB996E;" d="M474.113,210.792c1.936,0.163,3.879,1.047,5.289,2.577c1.474,1.507,2.082,3.72,2.054,5.76
					c-0.018,2.034-0.789,4.258-2.419,5.636c-1.591,1.399-3.697,1.93-5.623,1.748c1.866-0.486,3.588-1.344,4.739-2.65
					c0.55-0.663,1.038-1.374,1.264-2.209c0.172-0.389,0.206-0.836,0.322-1.248c0.036-0.436,0.093-0.874,0.099-1.311
					c0.005-0.879-0.042-1.764-0.303-2.587c-0.078-0.431-0.282-0.813-0.434-1.22c-0.218-0.373-0.404-0.77-0.673-1.12
					C477.404,212.733,475.867,211.6,474.113,210.792z"/>
			</g>
		</g>
	</g>
	<path style="fill:#37474F;" d="M288.429,345.717l20.472,93.122H172.225c0,0,6.475-79.278,15.704-104.989
		c6.029-16.797,44.847-19.778,71.129-15.708C273.603,320.394,285.269,331.341,288.429,345.717z"/>
	<g>
		<path style="fill:#108554;" d="M379.917,355.158l-239.031,73.259v10.422h465.006v-9.875L398.96,355.048
			C392.739,353.22,386.117,353.258,379.917,355.158z"/>
		<polygon style="fill:#b8fadd;" points="140.886,428.417 605.892,428.964 605.892,438.839 140.886,438.839 		"/>
	</g>
	<g>
		<path style="fill:#1D272B;" d="M256.379,135.866c0,0-12.003-1.138-29.282,16.602c-16.616,17.06-12.526,48.863-12.526,48.863
			l53.669-16.879l8.807-30.568L256.379,135.866z"/>
		<g>
			<path style="fill:#108554;" d="M266.693,167.708c0,0-51.273,11.836-63.525,39.268c-12.251,27.432-12.251,70.274-12.251,70.274
				l-10.896,54.726c-0.591,2.97,0.545,6.003,2.924,7.876c8.461,6.66,30.819,20.49,65.67,15.254
				c34.253-5.146,44.942-20.668,48.119-27.933c0.941-2.151,1.013-4.577,0.256-6.8l-4.554-13.364l11.299-67.392l64.148,98.771
				c0.938,1.444,2.941,1.721,4.227,0.577c3.75-3.335,11.539-9.91,21.052-15.974c0,0-63.398-105.824-83.363-136.226
				C289.834,156.364,266.693,167.708,266.693,167.708z"/>
			<path style="fill:#108554;" d="M271.168,284.771c0,0,1.915,7.229,2.407,10.125c0.492,2.897-1.111,3.453-1.111,3.453l-17.28,10.55
				c0,0-34.824,19.213-42.169,22.383c-7.345,3.171-9.482-0.547-9.482-0.547c-8.763-10.535-12.107-50.781-12.56-56.759
				c-0.055,2.081-0.057,3.274-0.057,3.274l-10.896,54.726c-0.591,2.97,0.545,6.003,2.924,7.876c0.134,0.105,0.281,0.217,0.422,0.326
				c8.197,2.691,18.454,5.667,22.776,5.307c7.721-0.644,66.347-37.963,69.492-40.733c3.146-2.771,2.86-9.24,2.86-9.24l17.356-8.875
				l2.292-13.67L271.168,284.771z"/>
			<g>
				<g>
					<path style="fill:#126945;" d="M190.917,277.25c1.01,6.471,2.067,12.92,3.378,19.311c0.974,6.438,2.165,12.85,3.821,19.114
						c0.841,3.123,1.796,6.222,3.063,9.146c0.636,1.456,1.356,2.873,2.231,4.126c0.865,1.234,1.95,2.356,3.138,2.68
						c0.294,0.081,0.589,0.114,0.888,0.099c0.327-0.019,0.708-0.077,1.073-0.144c0.743-0.143,1.502-0.359,2.255-0.597
						c1.51-0.475,3.011-1.073,4.499-1.694c2.976-1.258,5.907-2.673,8.813-4.135c11.609-5.908,22.893-12.516,34.091-19.231
						l8.367-5.095l4.164-2.578l1.037-0.65c0.198-0.128,0.284-0.182,0.381-0.27c0.095-0.085,0.184-0.178,0.257-0.283
						c0.295-0.418,0.442-0.93,0.354-1.475c-1.184-6.405-2.457-12.859-3.581-19.302c1.899,6.278,3.653,12.544,5.49,18.861
						c0.314,1.043,0.088,2.287-0.611,3.168c-0.169,0.224-0.369,0.425-0.584,0.604c-0.211,0.181-0.478,0.338-0.625,0.428
						l-1.043,0.648l-4.174,2.584l-8.384,5.105c-11.225,6.731-22.524,13.35-34.224,19.305c-2.933,1.476-5.894,2.905-8.939,4.193
						c-1.528,0.637-3.068,1.252-4.676,1.759c-0.805,0.253-1.62,0.487-2.483,0.655c-0.438,0.08-0.865,0.149-1.355,0.179
						c-0.517,0.027-1.044-0.033-1.537-0.171c-0.995-0.276-1.825-0.833-2.507-1.447c-0.683-0.621-1.251-1.31-1.751-2.023
						c-0.996-1.43-1.758-2.947-2.431-4.483c-1.333-3.079-2.305-6.248-3.164-9.434c-1.695-6.378-2.862-12.848-3.888-19.328
						c-0.352-3.265-0.618-6.536-0.854-9.806C191.167,283.799,190.993,280.525,190.917,277.25z"/>
				</g>
				<g>
					<path style="fill:#11563a;" d="M268.066,270.311c-8.563,5.287-17.349,10.156-26.19,14.922
						c-8.864,4.725-17.783,9.345-26.929,13.543c8.561-5.29,17.347-10.159,26.19-14.922
						C250.002,279.132,258.922,274.513,268.066,270.311z"/>
				</g>
				<g>
					<path style="fill:#11563a;" d="M226.942,292.233c-0.651-2.78-1.138-5.583-1.676-8.381l-0.774-8.48
						c-0.491-5.656-0.891-11.32-1.21-16.991c-0.329-5.67-0.522-11.352-0.549-17.041c-0.031-2.844,0.056-5.693,0.15-8.542l0.66-4.243
						c0.266-1.408,0.594-2.803,0.914-4.186l-0.099,4.259l0.089,4.243c-0.093,2.818-0.179,5.637-0.148,8.464
						c0.027,5.65,0.219,11.308,0.547,16.959c0.319,5.652,0.717,11.301,1.207,16.944c0.247,2.821,0.496,5.642,0.784,8.459
						C226.858,286.54,226.945,289.379,226.942,292.233z"/>
				</g>
				<g>
					<path style="fill:#11563a;" d="M208.749,198.2c2.281-0.576,4.715-0.587,7.074-0.092c2.358,0.486,4.663,1.628,6.41,3.414
						c1.749,1.786,2.807,4.148,3.203,6.519c0.425,2.378,0.302,4.785-0.215,7.072c-0.131-2.34-0.364-4.64-0.976-6.8
						c-0.299-1.08-0.698-2.119-1.224-3.078c-0.5-0.973-1.145-1.858-1.91-2.622c-1.495-1.568-3.471-2.642-5.6-3.328
						C213.372,198.61,211.088,198.27,208.749,198.2z"/>
				</g>
			</g>
			<path style="fill:#0fa968;" d="M269.197,220.13c0,0,8.554,21.714,14.708,20.963c6.154-0.75,14.775-19.89,14.775-19.89
				L269.197,220.13z"/>
			<g>
				<path style="fill:#11563a;" d="M298.143,272.966c1.028-10.655,2.524-21.238,4.135-31.803
					c1.658-10.558,3.433-21.097,5.681-31.564c-1.024,10.656-2.521,21.239-4.135,31.803
					C302.163,251.96,300.387,262.499,298.143,272.966z"/>
			</g>
			<g>
				<path style="fill:#11563a;" d="M280.718,306.825c-2.622,2.644-5.631,4.911-8.828,6.852c-3.198,1.951-6.624,3.531-10.17,4.771
					c-0.897,0.279-1.775,0.622-2.689,0.844l-2.734,0.692c-0.916,0.21-1.854,0.321-2.778,0.485l-1.39,0.226
					c-0.467,0.047-0.938,0.069-1.407,0.104c-3.739,0.435-7.519,0.008-11.163-0.636c0.935-0.008,1.862-0.003,2.785,0.021l1.382,0.026
					c0.46-0.013,0.922-0.064,1.381-0.095l2.749-0.163l2.725-0.367c3.615-0.547,7.189-1.375,10.629-2.616
					c3.46-1.177,6.822-2.653,10.079-4.35c1.615-0.873,3.23-1.759,4.796-2.732C277.683,308.953,279.202,307.902,280.718,306.825z"/>
			</g>
		</g>
		<g>
			<path style="fill:#263238;" d="M258.13,152.468c0,0-12.311-14.699-8.926-43.524c3.386-28.825,25.238-35.904,48.013-35.596
				c22.775,0.308,35.394,15.081,38.472,41.242c3.078,26.161-7.387,37.534-7.387,37.534L258.13,152.468z"/>
			<g>
				<path style="fill:#455A64;" d="M282.235,94.175c2.566,1.189,4.931,2.675,7.247,4.23c2.296,1.586,4.543,3.243,6.587,5.2
					c-2.568-1.187-4.932-2.673-7.247-4.23C286.527,97.787,284.28,96.129,282.235,94.175z"/>
			</g>
			<g>
				<path style="fill:#455A64;" d="M304.595,107.339c0.408-0.107,0.799-0.3,1.042-0.589c0.257-0.28,0.324-0.64,0.277-0.999
					c-0.101-0.735-0.521-1.427-0.988-2.086c-0.964-1.321-2.074-2.582-3.181-3.835c-2.213-2.518-4.504-4.984-6.616-7.656
					c1.386,0.995,2.675,2.1,3.921,3.251c1.249,1.147,2.434,2.363,3.572,3.629c1.12,1.282,2.212,2.597,3.097,4.105
					c0.431,0.752,0.842,1.613,0.8,2.586c-0.021,0.481-0.251,0.995-0.653,1.263C305.478,107.288,305.018,107.362,304.595,107.339z"/>
			</g>
			<g>
				<path style="fill:#455A64;" d="M310.529,107.999c0.854-0.184,1.419-0.855,1.699-1.581c0.305-0.737,0.388-1.539,0.357-2.333
					c-0.084-1.607-0.525-3.228-1.034-4.811c-0.501-1.593-1.112-3.161-1.724-4.736l-1.886-4.742c1.044,1.366,1.926,2.841,2.716,4.364
					c0.794,1.522,1.468,3.11,2.01,4.756c0.508,1.651,0.934,3.373,0.841,5.179c-0.047,0.901-0.274,1.819-0.76,2.596
					C312.281,107.462,311.418,108.103,310.529,107.999z"/>
			</g>
			<g>
				<path style="fill:#455A64;" d="M313.052,105.602c1.252,0.845,2.755,0.666,4.074,0.31c1.353-0.382,2.597-1.028,3.733-1.867
					c1.153-0.814,2.188-1.807,3.178-2.852c0.975-1.063,1.881-2.196,2.752-3.407c-0.434,1.431-1.161,2.768-2.044,3.988
					c-0.89,1.218-1.958,2.32-3.2,3.223c-1.238,0.889-2.694,1.582-4.226,1.807c-0.764,0.126-1.561,0.134-2.327-0.031
					C314.239,106.593,313.481,106.233,313.052,105.602z"/>
			</g>
		</g>
		<g>
			<path style="fill:#FFBE9D;" d="M263.074,158.337l-0.878,14.688c-2.555,2.799-4.713,8.972-1.349,22.589
				c1.004,4.065,2.103,7.151,3.236,9.5l5.115,15.016c0,0,13.896,6.084,29.483,1.073c0,0,3.918-5.013,5.032-25.589
				C304.826,175.037,263.074,158.337,263.074,158.337z"/>
			<path style="fill:#EB996E;" d="M280.697,206.414c8.862,4.773,16.509,3.411,21.905,0.903c0.462-3.187,0.859-7.042,1.111-11.704
				c0.16-2.956-0.586-5.827-1.945-8.585l-37.254-12.411C264.513,174.618,268.012,199.582,280.697,206.414z"/>
			<path style="fill:#FFBE9D;" d="M330.004,172.736c0.21-0.839,0.39-1.688,0.536-2.552c1.409-7.337,3.724-21.591,2.244-50.732
				c-0.074-1.457-0.786-2.805-1.95-3.685c-2.282-1.726-6.163-5.477-8.331-12.163c0,0-5.874,5.073-9.612,1.869
				c0,0-0.801,5.34-6.675,0.534c0,0,0,4.272-10.146-2.403h-15.487c0,0-1.734,9.663-11.169,14.668
				c-0.63,0.334-0.966,1.038-0.786,1.728c1.058,4.071,3.988,17.672-2.077,24.384c-2.555-2.097-5.969-3.184-9.636-2.649
				c-5.407,0.79-9.724,5.262-10.348,10.69c-0.855,7.435,4.935,13.739,12.198,13.739c1.781,0,3.469-0.387,4.997-1.069v2.59
				c0,18.581,15.063,30.512,33.643,30.512c15.155,0,27.963-10.024,32.172-23.802h0.005
				C329.582,174.398,329.747,173.845,330.004,172.736z"/>
		</g>
		<g>
			<g>
				<path style="fill:#263238;" d="M310.352,144.605l2.475,8.093c0.848,2.676,1.668,5.357,2.673,7.949
					c0.244,0.651,0.49,1.299,0.766,1.932l0.201,0.478c0.065,0.162,0.158,0.386,0.218,0.582c0.122,0.411,0.185,0.84,0.178,1.269
					c-0.018,1.713-1.23,3.372-2.889,3.772c-1.513,0.38-3.05,0.268-4.458-0.186c-1.402-0.473-2.633-1.285-3.659-2.263
					c1.233,0.701,2.514,1.286,3.852,1.52c1.319,0.252,2.704,0.163,3.904-0.236c1.087-0.389,1.815-1.488,1.768-2.611
					c-0.017-0.276-0.053-0.551-0.138-0.815c-0.048-0.139-0.092-0.241-0.16-0.404l-0.217-0.494c-0.299-0.656-0.567-1.32-0.827-1.987
					c-1.005-2.681-1.772-5.423-2.387-8.194C311.044,150.237,310.569,147.438,310.352,144.605z"/>
			</g>
			<path style="fill:#263238;" d="M296.616,147.969c0,1.858-1.506,3.364-3.364,3.364c-1.858,0-3.364-1.506-3.364-3.364
				c0-1.858,1.506-3.364,3.364-3.364C295.11,144.605,296.616,146.111,296.616,147.969z"/>
			<path style="fill:#263238;" d="M323.781,147.538c0,1.858-1.206,3.364-2.694,3.364c-1.488,0-2.695-1.506-2.695-3.364
				c0-1.858,1.206-3.364,2.695-3.364C322.575,144.174,323.781,145.68,323.781,147.538z"/>
			<g>
				<path style="fill:#263238;" d="M285.247,139.611c0.11-1.568,0.908-3.116,2.188-4.22c1.268-1.143,3.049-1.682,4.717-1.669
					c0.838,0,1.669,0.124,2.486,0.367c0.803,0.286,1.594,0.655,2.25,1.212c1.313,1.102,2.106,2.732,2.038,4.311
					c-0.762-1.36-1.797-2.368-2.943-3.006c-1.172-0.608-2.48-0.852-3.835-0.849c-1.33,0.007-2.625,0.238-3.785,0.917
					C287.195,137.332,286.148,138.344,285.247,139.611z"/>
			</g>
			<g>
				<path style="fill:#263238;" d="M316.122,139.611c-0.1-1.313,0.238-2.655,1.029-3.84c0.408-0.582,0.949-1.12,1.628-1.5
					c0.685-0.355,1.473-0.57,2.237-0.55c1.497-0.04,3.086,0.778,3.882,1.996c0.813,1.203,1.098,2.592,0.893,3.893
					c-0.626-1.141-1.296-2.151-2.102-2.845c-0.396-0.352-0.822-0.606-1.271-0.762c-0.436-0.177-0.93-0.245-1.413-0.248
					c-0.486-0.024-0.928,0.092-1.374,0.243c-0.438,0.179-0.858,0.462-1.269,0.812C317.537,137.528,316.835,138.522,316.122,139.611z
					"/>
			</g>
			<path style="fill:#263238;" d="M281.596,127.451c2.352-0.465,7.95-1.267,15.479-0.354c0.631,0.077,1.068-0.631,0.71-1.156
				c-1.094-1.605-3.833-4.023-10.282-3.561c-4.396,0.315-6.097,2.569-6.743,4.048C280.519,126.979,281.006,127.567,281.596,127.451z
				"/>
			<path style="fill:#263238;" d="M315.187,127.544c1.765-0.526,5.958-1.475,11.544-0.763c0.468,0.06,0.813-0.658,0.56-1.171
				c-0.773-1.571-2.749-3.911-7.568-3.278c-3.284,0.431-4.611,2.723-5.132,4.215C314.397,127.102,314.745,127.676,315.187,127.544z"
				/>
			<g>
				<path style="fill:#EB996E;" d="M257.905,162.421c-2.057-0.173-4.122-1.113-5.621-2.739c-1.567-1.602-2.213-3.953-2.183-6.122
					c0.019-2.162,0.839-4.525,2.571-5.99c1.691-1.487,3.929-2.052,5.976-1.858c-1.983,0.517-3.813,1.429-5.037,2.817
					c-0.585,0.705-1.103,1.46-1.344,2.348c-0.183,0.413-0.219,0.889-0.342,1.326c-0.038,0.464-0.099,0.928-0.105,1.394
					c-0.005,0.934,0.044,1.875,0.322,2.749c0.083,0.458,0.299,0.864,0.461,1.296c0.231,0.396,0.429,0.818,0.715,1.191
					C254.407,160.359,256.04,161.562,257.905,162.421z"/>
			</g>
			<g>
				<path style="fill:#EB996E;" d="M301.957,176.823c-0.935,2.185-4,2.969-6.845,1.751c-2.845-1.218-4.393-3.977-3.457-6.162
					c0.935-2.185,4-2.968,6.845-1.75C301.345,171.88,302.893,174.639,301.957,176.823z"/>
				<g>
					<path style="fill:#263238;" d="M288.65,166.119c0.933,1.774,2.047,3.383,3.358,4.777c1.32,1.377,2.8,2.586,4.495,3.404
						c0.393,0.262,0.856,0.384,1.281,0.585l0.651,0.275l0.68,0.197c0.454,0.13,0.904,0.288,1.366,0.399
						c0.471,0.072,0.941,0.158,1.413,0.251c0.237,0.041,0.472,0.1,0.712,0.126l0.723,0.051l1.458,0.128
						c0.978,0.036,1.963-0.007,2.978,0.058c-0.958,0.277-1.941,0.53-2.939,0.709l-1.519,0.13c-0.51,0.055-1.021,0.066-1.533,0.013
						c-2.065-0.017-4.108-0.634-5.987-1.53c-1.873-0.941-3.489-2.359-4.715-4.017C289.843,170.023,288.97,168.109,288.65,166.119z"
						/>
				</g>
				<g>
					<path style="fill:#263238;" d="M291.215,166.119c-1.042,0.226-1.551,0.477-2.008,0.804c-0.239,0.163-0.472,0.389-0.775,0.629
						c-0.132,0.137-0.292,0.271-0.461,0.415c-0.168,0.149-0.336,0.306-0.576,0.456c-0.174-0.505-0.161-1.01-0.015-1.494
						c0.159-0.481,0.452-0.956,0.926-1.287c0.468-0.328,1.082-0.483,1.626-0.379C290.472,165.351,290.953,165.644,291.215,166.119z"
						/>
				</g>
			</g>
		</g>
		<g>
			<path style="fill:#FFBE9D;" d="M267.793,270.457c0,0,29.957-33.929,32.108-34.756c2.152-0.828,11.585-2.814,16.882-1.821
				c5.296,0.993,2.974,4.983-0.911,4.983c-3.149,0-12.044,2.152-12.54,2.317c-0.497,0.166-6.09,7.545-6.09,7.545
				s4.48-5.245,14.742-8.39c10.261-3.145,12.744-2.317,12.91,0.496c0,0,2.185-0.024,2.756,1.827
				c0.695,2.249-1.929,4.297-4.577,5.621c-2.648,1.324-7.396,3.634-9.382,4.68c-1.986,1.046-9.058,4.783-9.058,4.783
				s7.448-2.438,9.915-3.297c4.405-1.534,8.74-1.888,9.893,0c0.917,1.501-1.6,3.067-9.663,5.77l-8.222,6.148
				c-0.5,0.452-0.342,0.703-0.699,1.274c-1.284,2.057-4.607,8.193-10.009,12.146c-6.786,4.965-13.872,5.734-13.872,5.734
				l-8.704,5.666C273.27,291.184,270.989,284.69,267.793,270.457z"/>
			<g>
				<path style="fill:#E28A64;" d="M292.65,251.366c0.543-0.932,1.138-1.831,1.876-2.652c0.19-0.203,0.385-0.403,0.653-0.57
					c0.103-0.083,0.36-0.161,0.475-0.168l0.414-0.047c0.552-0.037,1.093-0.04,1.646-0.023L297.451,248
					c1.89-1.843,3.948-3.49,6.241-4.838c1.133-0.671,2.398-1.232,3.612-1.678c1.222-0.47,2.463-0.885,3.707-1.289
					c2.493-0.791,5.026-1.476,7.625-1.891c1.298-0.186,2.618-0.399,3.968-0.222c0.658,0.092,1.38,0.285,1.858,0.829
					c0.481,0.56,0.457,1.29,0.43,1.921c-0.064-0.638-0.175-1.326-0.623-1.74c-0.447-0.407-1.088-0.512-1.705-0.528
					c-1.25-0.003-2.524,0.229-3.775,0.517c-2.502,0.603-4.972,1.376-7.423,2.194c-1.227,0.406-2.439,0.854-3.651,1.299
					c-1.232,0.436-2.353,0.93-3.476,1.557c-1.12,0.605-2.195,1.305-3.249,2.037c-1.056,0.726-2.093,1.509-3.062,2.338l-0.126,0.108
					l-0.138-0.014c-0.519-0.052-1.053-0.085-1.574-0.086l-0.389,0c-0.152,0.008-0.161,0.009-0.286,0.065
					c-0.201,0.093-0.411,0.256-0.606,0.425C294.025,249.702,293.335,250.539,292.65,251.366z"/>
			</g>
			<g>
				<path style="fill:#E28A64;" d="M296.125,254.445c0.455-1.004,0.971-1.993,1.78-2.818c0.208-0.197,0.465-0.387,0.768-0.486
					c0.27-0.088,0.542-0.161,0.816-0.224c0.55-0.129,1.099-0.215,1.669-0.263l-0.132,0.036c3.858-2.141,7.764-4.189,11.786-6.015
					c2.005-0.926,4.034-1.801,6.11-2.587c1.033-0.404,2.086-0.762,3.164-1.073c0.537-0.158,1.075-0.315,1.645-0.412
					c0.54-0.147,1.161-0.161,1.768-0.172l-0.034-0.001c0.583,0.032,1.089,0.182,1.585,0.481c0.481,0.305,0.87,0.823,0.984,1.38
					c0.124,0.567,0.058,1.074-0.024,1.569c-0.091,0.502-0.27,1.003-0.545,1.44c-0.569,0.873-1.403,1.443-2.226,1.936
					c-0.833,0.49-1.706,0.886-2.589,1.253c0.824-0.484,1.644-0.975,2.415-1.52c0.758-0.553,1.483-1.182,1.891-1.966
					c0.211-0.385,0.335-0.806,0.389-1.246c0.05-0.444,0.068-0.911-0.043-1.275c-0.193-0.758-1.04-1.134-1.831-1.129l-0.035-0.001
					c-0.493,0.049-0.973,0.083-1.5,0.235c-0.514,0.103-1.029,0.269-1.543,0.437c-1.028,0.325-2.046,0.724-3.062,1.121
					c-2.034,0.793-4.036,1.693-6.044,2.577l-5.99,2.744c-1.996,0.918-3.997,1.836-5.976,2.79l-0.07,0.034l-0.063,0.002
					c-0.528,0.018-1.074,0.065-1.607,0.132c-0.267,0.035-0.533,0.08-0.794,0.139c-0.229,0.053-0.438,0.173-0.647,0.335
					C297.335,252.581,296.708,253.519,296.125,254.445z"/>
			</g>
			<g>
				<path style="fill:#E28A64;" d="M299.195,260.13c0.73-0.806,1.453-1.618,2.265-2.356c0.213-0.171,0.393-0.392,0.731-0.484
					c0.302-0.056,0.58-0.037,0.859-0.017c0.555,0.048,1.093,0.142,1.636,0.256l-0.122,0.004c2.598-0.95,5.221-1.823,7.838-2.717
					l3.936-1.316c1.312-0.426,2.644-0.864,4.074-1.094c0.714-0.107,1.466-0.167,2.253,0.003c0.79,0.141,1.563,0.687,1.994,1.354
					c0.117,0.175,0.201,0.309,0.308,0.529c0.108,0.223,0.162,0.498,0.146,0.758c-0.032,0.535-0.299,0.94-0.557,1.249
					c-0.539,0.62-1.165,1.013-1.794,1.376c-0.621,0.35-1.31,0.663-1.958,0.896l-1.941,0.729l-3.891,1.434l0.137-0.075l-8.263,6.093
					l0.141-0.166c-1.535,2.734-3.248,5.33-5.186,7.775c-0.974,1.216-2.03,2.369-3.17,3.432c-1.136,1.062-2.389,2.024-3.79,2.693
					c1.331-0.795,2.491-1.824,3.552-2.934c1.063-1.112,2.01-2.327,2.921-3.564c1.814-2.477,3.419-5.129,4.81-7.847l0.05-0.097
					l0.091-0.069l8.181-6.203l0.06-0.046l0.077-0.03l3.87-1.483l1.94-0.729c0.655-0.227,1.23-0.484,1.818-0.803
					c0.569-0.313,1.129-0.678,1.501-1.103c0.186-0.209,0.301-0.431,0.307-0.594c0.006-0.083-0.003-0.16-0.046-0.248
					c-0.042-0.091-0.135-0.256-0.21-0.367c-0.603-1.015-1.892-1.148-3.201-0.945c-1.308,0.182-2.611,0.619-3.942,0.988l-3.974,1.167
					l-7.945,2.37l-0.066,0.02l-0.057-0.016c-0.513-0.141-1.041-0.266-1.566-0.343c-0.26-0.036-0.53-0.064-0.766-0.035
					c-0.199,0.031-0.42,0.225-0.629,0.382C300.785,258.642,299.984,259.384,299.195,260.13z"/>
			</g>
		</g>
		<g>
			<path style="fill:#FFBE9D;" d="M423.501,392.762c-0.284-2.59-2.885-11.309-4.261-14.192c-0.074-0.155-0.17-0.326-0.276-0.504
				c0.147-1.786,1.793-3.931,1.07-5.549c-1.2-2.686-5.836-7.375-5.836-7.375s0.92-2.926,0.223-3.899
				c-0.697-0.973-6.407-13.619-7.904-16.382c-1.496-2.764-2.577-4.907-6.036-9.083c-2.451-2.958-8.488-12.165-8.488-12.165
				s-8.968,5.812-16.68,12.579c0,0,10.374,9.502,10.195,12.621c-0.179,3.119-2.891,8.742-3.939,13.376
				c-1.048,4.634-2.102,9.9-4.548,13.22c-2.447,3.32-4.711,7.479,0.717,6.834c5.428-0.645,6.315-4.054,7.202-7.464
				c0.887-3.41,1.923-6.78,4.668-6.382c2.746,0.398,10.555,11.136,12.02,13.416c1.392,2.168,2.228,15.075,8.517,14.514
				c0.811-0.072,1.516-0.554,1.414-1.362c-0.39-3.062,0.128-10.668-6.92-22.096c0,0,5.696,4.17,7.643,6.418
				c1.891,2.182,4.149,14.805,10.487,14.322C423.211,393.578,423.55,393.202,423.501,392.762z"/>
			<g>
				<g>
					<path style="fill:#E28A64;" d="M418.964,378.067l-1.963-2.875c-0.327-0.47-0.659-0.934-1.013-1.363
						c-0.174-0.215-0.352-0.422-0.536-0.608c-0.092-0.093-0.186-0.166-0.277-0.251l-0.348-0.259
						c-1.834-1.411-3.615-2.881-5.329-4.444l-0.095-0.086l-0.026-0.061c-0.536-1.275-1.047-2.563-1.462-3.898
						c0.819,1.134,1.543,2.315,2.241,3.509l-0.12-0.147c1.902,1.343,3.738,2.78,5.52,4.274l0.33,0.286
						c0.115,0.119,0.239,0.237,0.343,0.358c0.207,0.242,0.389,0.49,0.562,0.74c0.329,0.508,0.616,1.027,0.883,1.553
						C418.193,375.851,418.634,376.938,418.964,378.067z"/>
				</g>
				<g>
					<path style="fill:#E28A64;" d="M404.639,372.871c-0.252-0.648-0.407-1.288-0.556-1.909c-0.086-0.306-0.139-0.618-0.234-0.883
						c-0.113-0.324-0.073-0.269-0.343-0.491c-0.444-0.38-0.984-0.759-1.471-1.185c-0.499-0.419-0.986-0.865-1.425-1.406
						c0.687,0.119,1.315,0.352,1.918,0.633c0.608,0.284,1.171,0.61,1.735,1.061c0.132,0.121,0.289,0.253,0.447,0.497
						c0.147,0.267,0.178,0.439,0.217,0.632c0.054,0.37,0.082,0.707,0.064,1.05C404.973,371.548,404.873,372.214,404.639,372.871z"/>
				</g>
				<g>
					<path style="fill:#E28A64;" d="M414.198,365.142c-0.774-0.455-1.365-1.061-1.911-1.704c-0.528-0.658-1.01-1.354-1.308-2.201
						c0.775,0.454,1.366,1.06,1.911,1.704C413.417,363.6,413.899,364.296,414.198,365.142z"/>
				</g>
			</g>
		</g>
	</g>
	<g>
		<path style="fill:#455A64;" d="M351.416,443.774l-31.794-43.51c-0.841-1.151-1.251-2.561-1.159-3.983l0.201-3.111l65.059-7.345
			L351.416,443.774z"/>
		<polygon style="fill:#304349;" points="372.762,394.257 331.761,398.981 361.426,437.715 		"/>
		<path style="fill:#263238;" d="M532.532,313.874l-2.797-1.932c-1.828-1.308-4.06-1.927-6.301-1.747l-160.512,12.89
			c-2.13,0.171-3.833,1.842-4.043,3.969l-10.494,105.971l-29.721-39.854l-0.218,3.37c-0.081,1.256,0.281,2.5,1.023,3.515
			l29.448,40.299l2.499,3.419L532.532,313.874z"/>
		<path style="fill:#455A64;" d="M516.511,420.361l-165.095,23.413l12.548-113.156c0.233-2.098,1.916-3.738,4.02-3.916
			l161.601-13.653c2.856-0.241,5.168,2.283,4.678,5.107L516.511,420.361z"/>
		<path style="fill:#F5F5F5;" d="M439.334,376.892c-1.529,5.353-1.028,11.503,3.983,12.934c5.011,1.432,10.313-1.747,11.843-7.101
			c1.529-5.353,1.029-11.503-3.983-12.934C446.165,368.359,440.863,371.538,439.334,376.892z"/>
	</g>
	<path style="fill:#FFFFFF;" d="M291.061,399.463c0-9.931-8.051-17.982-17.982-17.982c-2.944,0-5.714,0.721-8.167,1.975
		c-3.324-6.706-10.219-11.327-18.211-11.327c-11.231,0-20.336,9.105-20.336,20.336c0,0.133,0.017,0.261,0.02,0.393
		c-0.981-0.248-2.003-0.393-3.061-0.393c-6.897,0-12.489,5.591-12.489,12.489c0,6.898,5.592,12.489,12.489,12.489h52.245
		l-0.128-0.173C284.253,416.113,291.061,408.591,291.061,399.463z"/>
</g>
</svg>
